<svg width="21" height="16" viewBox="0 0 21 16" fill="none" xmlns="http://www.w3.org/2000/svg">
<path d="M8.35715 12.716C8.94293 13.3018 8.94294 14.2515 8.35715 14.8373C7.77136 15.4231 6.82162 15.4231 6.23583 14.8373L1.30023 9.90169C0.714444 9.3159 0.714442 8.36615 1.30023 7.78037C1.88601 7.19458 2.83576 7.19458 3.42155 7.78037L8.35715 12.716Z" fill="url(#paint0_linear_10182_14)"/>
<path d="M17.5493 1.40272C18.1351 0.816932 19.0848 0.816932 19.6706 1.40272C20.2564 1.98851 20.2564 2.93825 19.6706 3.52404L8.35715 14.8373C7.77136 15.4231 6.82162 15.4231 6.23583 14.8373C5.65004 14.2515 5.64978 13.3022 6.23556 12.7164L17.5493 1.40272Z" fill="url(#paint1_linear_10182_14)"/>
<defs>
<linearGradient id="paint0_linear_10182_14" x1="2.82833" y1="0.963377" x2="19.358" y2="2.62033" gradientUnits="userSpaceOnUse">
<stop stop-color="#C89AFC"/>
<stop offset="1" stop-color="#7C6AFA"/>
</linearGradient>
<linearGradient id="paint1_linear_10182_14" x1="2.82833" y1="0.963377" x2="19.358" y2="2.62033" gradientUnits="userSpaceOnUse">
<stop stop-color="#C89AFC"/>
<stop offset="1" stop-color="#7C6AFA"/>
</linearGradient>
</defs>
</svg>
